# xmcd
#
# Track frame offsets: 
#        150
#        42587
#        80946
#        124491
#        149224
#        192703
#        239163
#        267062
#        301199
#
# Disc length: 4629 seconds
#
# Revision: 1
# Processed by: cddbd v1.5.2PL0 Copyright (c) Steve Scherf et al.
# Submitted via: ExactAudioCopy v1.3
#
DISCID=97121309
DTITLE=Freddie Hubbard - The Artist Selects
DYEAR=2005
DGENRE=Jazz
TTITLE0=The Core
TTITLE1=Crisis
TTITLE2=Up Jumped Spring
TTITLE3=Prophet Jennings
TTITLE4=Lament For Booker
TTITLE5=Breaking Point
TTITLE6=Karioka
TTITLE7=The Melting Pot
TTITLE8=Birdlike
EXTD=YEAR: 2005
EXTT0=
EXTT1=
EXTT2=
EXTT3=
EXTT4=
EXTT5=
EXTT6=
EXTT7=
EXTT8=
PLAYORDER=
